<svg height="720" width="720" xmlns="http://www.w3.org/2000/svg"><path d="m547 83.4244c-5.967.7839-12.093.8522-18 2.0895-17.722 3.7125-34.873 13.2255-47.996 25.5751-47.98 45.155-39.521 126.01 14.996 161.832 21.305 14 47.03 18.215 72 14.92 12.551-1.656 25.218-6.534 36-13.045 10.743-6.488 20.543-14.912 28.331-24.796 33.396-42.384 26.751-104.693-12.331-140.91-9.126-8.457-20.444-14.8066-32-19.279-12.347-4.7788-27.768-8.1248-41-6.3866m-334 49.9996c-14.922 1.96-27.997 3.962-42 10.004-8.725 3.765-16.726 9.445-24 15.493-17.372 14.444-30.564 34.972-35.764 57.079-6.543 27.817-3.236 58.623-3.236 87v136 58c0 29.568.703 57.017 16.814 83 14.356 23.153 39.294 42.122 66.186 47.985 22.171 4.835 45.452 3.015 68 3.015h172 50c18.148 0 35.586-.105 53-6.004 37.187-12.596 65.09-46.477 71.565-84.996 3.543-21.079 1.435-43.665 1.435-65v-79-66c0-9.577.304-19.945-10.004-24.467-8.885-3.898-19.306 1.261-22.192 10.467-1.648 5.257-.804 11.557-.804 17v31 129c0 14.114 1.411 29.091-1.371 43-2.969 14.84-10.845 29.389-21.644 39.961-25.514 24.977-58.115 22.039-90.985 22.039h-177-49c-13.682 0-26.89.48-40-4.003-25.68-8.781-47.103-31.81-51.676-58.997-1.939-11.526-1.324-23.358-1.324-35v-53-166c0-29.46-2.972-59.085 15.9-84 3.765-4.971 8.278-9.583 13.1-13.535 22.685-18.596 49.388-17.465 77-17.465h120 40c6.108 0 13.48 1.089 18.996-2.089 8.373-4.826 10.905-17.23 4.585-24.806-3.331-3.993-8.549-5.644-13.581-6.015-12.865-.948-26.1-.09-39-.09h-78-56c-10.196 0-20.883-.904-31 .424m147 108.576c-19.422 27.037-39.9 53.368-59.873 80l-18 24c-3.601 4.801-7.782 9.452-10.127 15h59v87c0 14.898-.934 30.139.09 45 1.106 16.063 12.046 29.393 28.91 29.957 15.87.53 29.139-11.254 30.826-26.957 1.578-14.68.174-30.234.174-45v-90h60c-6.524-10.477-14.72-20.125-22.127-30l-41.246-55-17.254-23c-3.081-4.109-5.723-8.639-10.373-11z"/></svg>